# xmcd
#
# Track frame offsets: 
#        150
#        17243
#        41960
#
# Disc length: 824 seconds
#
# Revision: 2
# Processed by: cddbd v1.5.2PL0 Copyright (c) Steve Scherf et al.
# Submitted via: ExactAudioCopy v0.99pb4
#
DISCID=22033603
DTITLE=Damage - Damage - Wonderful Tonight
DYEAR=1996
DGENRE=Pop
TTITLE0=Wonderful Tonight
TTITLE1=I Am Ready
TTITLE2=Wonderful Tonight (Ethnic Boyz Mix)
EXTD=
EXTT0=
EXTT1=
EXTT2=
PLAYORDER=
